<mxfile host="65bd71144e">
    <diagram id="EwINHNaxvrHMs_6RgIS7" name="Page-1">
        <mxGraphModel dx="938" dy="686" grid="1" gridSize="10" guides="1" tooltips="1" connect="1" arrows="1" fold="1" page="1" pageScale="1" pageWidth="850" pageHeight="1100" math="0" shadow="0">
            <root>
                <mxCell id="0"/>
                <mxCell id="1" parent="0"/>
                <mxCell id="4" value="" style="shape=table;startSize=0;container=1;collapsible=0;childLayout=tableLayout;strokeColor=#FF00FF;fontSize=24;fontColor=#000000;fillColor=#E6E6E6;" parent="1" vertex="1">
                    <mxGeometry x="20" y="60" width="270" height="245" as="geometry"/>
                </mxCell>
                <mxCell id="5" value="" style="shape=tableRow;horizontal=0;startSize=0;swimlaneHead=0;swimlaneBody=0;top=0;left=0;bottom=0;right=0;collapsible=0;dropTarget=0;fillColor=none;points=[[0,0.5],[1,0.5]];portConstraint=eastwest;strokeColor=#FF00FF;fontSize=24;fontColor=#000000;" parent="4" vertex="1">
                    <mxGeometry width="270" height="29" as="geometry"/>
                </mxCell>
                <mxCell id="6" value="&lt;font style=&quot;font-size: 12px;&quot;&gt;PK&lt;/font&gt;" style="shape=partialRectangle;html=1;whiteSpace=wrap;connectable=0;overflow=hidden;fillColor=none;top=0;left=0;bottom=0;right=0;pointerEvents=1;strokeColor=#FF00FF;fontSize=24;fontColor=#000000;" parent="5" vertex="1">
                    <mxGeometry width="66" height="29" as="geometry">
                        <mxRectangle width="66" height="29" as="alternateBounds"/>
                    </mxGeometry>
                </mxCell>
                <mxCell id="7" value="&lt;font style=&quot;font-size: 12px;&quot;&gt;user_id&lt;/font&gt;" style="shape=partialRectangle;html=1;whiteSpace=wrap;connectable=0;overflow=hidden;fillColor=none;top=0;left=0;bottom=0;right=0;pointerEvents=1;strokeColor=#FF00FF;fontSize=24;fontColor=#000000;" parent="5" vertex="1">
                    <mxGeometry x="66" width="144" height="29" as="geometry">
                        <mxRectangle width="144" height="29" as="alternateBounds"/>
                    </mxGeometry>
                </mxCell>
                <mxCell id="8" value="&lt;font style=&quot;font-size: 12px;&quot;&gt;INT&lt;/font&gt;" style="shape=partialRectangle;html=1;whiteSpace=wrap;connectable=0;overflow=hidden;fillColor=none;top=0;left=0;bottom=0;right=0;pointerEvents=1;strokeColor=#FF00FF;fontSize=24;fontColor=#000000;" parent="5" vertex="1">
                    <mxGeometry x="210" width="60" height="29" as="geometry">
                        <mxRectangle width="60" height="29" as="alternateBounds"/>
                    </mxGeometry>
                </mxCell>
                <mxCell id="9" value="" style="shape=tableRow;horizontal=0;startSize=0;swimlaneHead=0;swimlaneBody=0;top=0;left=0;bottom=0;right=0;collapsible=0;dropTarget=0;fillColor=none;points=[[0,0.5],[1,0.5]];portConstraint=eastwest;strokeColor=#FF00FF;fontSize=24;fontColor=#000000;" parent="4" vertex="1">
                    <mxGeometry y="29" width="270" height="31" as="geometry"/>
                </mxCell>
                <mxCell id="10" value="" style="shape=partialRectangle;html=1;whiteSpace=wrap;connectable=0;overflow=hidden;fillColor=none;top=0;left=0;bottom=0;right=0;pointerEvents=1;strokeColor=#FF00FF;fontSize=24;fontColor=#000000;" parent="9" vertex="1">
                    <mxGeometry width="66" height="31" as="geometry">
                        <mxRectangle width="66" height="31" as="alternateBounds"/>
                    </mxGeometry>
                </mxCell>
                <mxCell id="11" value="&lt;font style=&quot;font-size: 12px;&quot;&gt;name&lt;/font&gt;" style="shape=partialRectangle;html=1;whiteSpace=wrap;connectable=0;overflow=hidden;fillColor=none;top=0;left=0;bottom=0;right=0;pointerEvents=1;strokeColor=#FF00FF;fontSize=24;fontColor=#000000;" parent="9" vertex="1">
                    <mxGeometry x="66" width="144" height="31" as="geometry">
                        <mxRectangle width="144" height="31" as="alternateBounds"/>
                    </mxGeometry>
                </mxCell>
                <mxCell id="12" value="&lt;font style=&quot;font-size: 12px;&quot;&gt;VARCHAR&lt;/font&gt;" style="shape=partialRectangle;html=1;whiteSpace=wrap;connectable=0;overflow=hidden;fillColor=none;top=0;left=0;bottom=0;right=0;pointerEvents=1;strokeColor=#FF00FF;fontSize=24;fontColor=#000000;" parent="9" vertex="1">
                    <mxGeometry x="210" width="60" height="31" as="geometry">
                        <mxRectangle width="60" height="31" as="alternateBounds"/>
                    </mxGeometry>
                </mxCell>
                <mxCell id="13" value="" style="shape=tableRow;horizontal=0;startSize=0;swimlaneHead=0;swimlaneBody=0;top=0;left=0;bottom=0;right=0;collapsible=0;dropTarget=0;fillColor=none;points=[[0,0.5],[1,0.5]];portConstraint=eastwest;strokeColor=#FF00FF;fontSize=24;fontColor=#000000;" parent="4" vertex="1">
                    <mxGeometry y="60" width="270" height="31" as="geometry"/>
                </mxCell>
                <mxCell id="14" value="" style="shape=partialRectangle;html=1;whiteSpace=wrap;connectable=0;overflow=hidden;fillColor=none;top=0;left=0;bottom=0;right=0;pointerEvents=1;strokeColor=#FF00FF;fontSize=24;fontColor=#000000;" parent="13" vertex="1">
                    <mxGeometry width="66" height="31" as="geometry">
                        <mxRectangle width="66" height="31" as="alternateBounds"/>
                    </mxGeometry>
                </mxCell>
                <mxCell id="15" value="&lt;font style=&quot;font-size: 12px;&quot;&gt;email&lt;/font&gt;" style="shape=partialRectangle;html=1;whiteSpace=wrap;connectable=0;overflow=hidden;fillColor=none;top=0;left=0;bottom=0;right=0;pointerEvents=1;strokeColor=#FF00FF;fontSize=24;fontColor=#000000;" parent="13" vertex="1">
                    <mxGeometry x="66" width="144" height="31" as="geometry">
                        <mxRectangle width="144" height="31" as="alternateBounds"/>
                    </mxGeometry>
                </mxCell>
                <mxCell id="16" value="&lt;font style=&quot;font-size: 12px;&quot;&gt;VARCHAR&lt;/font&gt;" style="shape=partialRectangle;html=1;whiteSpace=wrap;connectable=0;overflow=hidden;fillColor=none;top=0;left=0;bottom=0;right=0;pointerEvents=1;strokeColor=#FF00FF;fontSize=24;fontColor=#000000;" parent="13" vertex="1">
                    <mxGeometry x="210" width="60" height="31" as="geometry">
                        <mxRectangle width="60" height="31" as="alternateBounds"/>
                    </mxGeometry>
                </mxCell>
                <mxCell id="17" value="" style="shape=tableRow;horizontal=0;startSize=0;swimlaneHead=0;swimlaneBody=0;top=0;left=0;bottom=0;right=0;collapsible=0;dropTarget=0;fillColor=none;points=[[0,0.5],[1,0.5]];portConstraint=eastwest;strokeColor=#FF00FF;fontSize=24;fontColor=#000000;" parent="4" vertex="1">
                    <mxGeometry y="91" width="270" height="30" as="geometry"/>
                </mxCell>
                <mxCell id="18" value="" style="shape=partialRectangle;html=1;whiteSpace=wrap;connectable=0;overflow=hidden;fillColor=none;top=0;left=0;bottom=0;right=0;pointerEvents=1;strokeColor=#FF00FF;fontSize=24;fontColor=#000000;" parent="17" vertex="1">
                    <mxGeometry width="66" height="30" as="geometry">
                        <mxRectangle width="66" height="30" as="alternateBounds"/>
                    </mxGeometry>
                </mxCell>
                <mxCell id="19" value="&lt;font style=&quot;font-size: 12px;&quot;&gt;address&lt;/font&gt;" style="shape=partialRectangle;html=1;whiteSpace=wrap;connectable=0;overflow=hidden;fillColor=none;top=0;left=0;bottom=0;right=0;pointerEvents=1;strokeColor=#FF00FF;fontSize=24;fontColor=#000000;" parent="17" vertex="1">
                    <mxGeometry x="66" width="144" height="30" as="geometry">
                        <mxRectangle width="144" height="30" as="alternateBounds"/>
                    </mxGeometry>
                </mxCell>
                <mxCell id="20" value="&lt;font style=&quot;font-size: 12px;&quot;&gt;VARCHAR&lt;/font&gt;" style="shape=partialRectangle;html=1;whiteSpace=wrap;connectable=0;overflow=hidden;fillColor=none;top=0;left=0;bottom=0;right=0;pointerEvents=1;strokeColor=#FF00FF;fontSize=24;fontColor=#000000;" parent="17" vertex="1">
                    <mxGeometry x="210" width="60" height="30" as="geometry">
                        <mxRectangle width="60" height="30" as="alternateBounds"/>
                    </mxGeometry>
                </mxCell>
                <mxCell id="21" value="" style="shape=tableRow;horizontal=0;startSize=0;swimlaneHead=0;swimlaneBody=0;top=0;left=0;bottom=0;right=0;collapsible=0;dropTarget=0;fillColor=none;points=[[0,0.5],[1,0.5]];portConstraint=eastwest;strokeColor=#FF00FF;fontSize=24;fontColor=#000000;" parent="4" vertex="1">
                    <mxGeometry y="121" width="270" height="33" as="geometry"/>
                </mxCell>
                <mxCell id="22" value="" style="shape=partialRectangle;html=1;whiteSpace=wrap;connectable=0;overflow=hidden;fillColor=none;top=0;left=0;bottom=0;right=0;pointerEvents=1;strokeColor=#FF00FF;fontSize=24;fontColor=#000000;" parent="21" vertex="1">
                    <mxGeometry width="66" height="33" as="geometry">
                        <mxRectangle width="66" height="33" as="alternateBounds"/>
                    </mxGeometry>
                </mxCell>
                <mxCell id="23" value="&lt;font style=&quot;font-size: 12px;&quot;&gt;phone&lt;/font&gt;" style="shape=partialRectangle;html=1;whiteSpace=wrap;connectable=0;overflow=hidden;fillColor=none;top=0;left=0;bottom=0;right=0;pointerEvents=1;strokeColor=#FF00FF;fontSize=24;fontColor=#000000;" parent="21" vertex="1">
                    <mxGeometry x="66" width="144" height="33" as="geometry">
                        <mxRectangle width="144" height="33" as="alternateBounds"/>
                    </mxGeometry>
                </mxCell>
                <mxCell id="24" value="&lt;font style=&quot;font-size: 12px;&quot;&gt;VARCHAR&lt;/font&gt;" style="shape=partialRectangle;html=1;whiteSpace=wrap;connectable=0;overflow=hidden;fillColor=none;top=0;left=0;bottom=0;right=0;pointerEvents=1;strokeColor=#FF00FF;fontSize=24;fontColor=#000000;" parent="21" vertex="1">
                    <mxGeometry x="210" width="60" height="33" as="geometry">
                        <mxRectangle width="60" height="33" as="alternateBounds"/>
                    </mxGeometry>
                </mxCell>
                <mxCell id="25" value="" style="shape=tableRow;horizontal=0;startSize=0;swimlaneHead=0;swimlaneBody=0;top=0;left=0;bottom=0;right=0;collapsible=0;dropTarget=0;fillColor=none;points=[[0,0.5],[1,0.5]];portConstraint=eastwest;strokeColor=#FF00FF;fontSize=24;fontColor=#000000;" parent="4" vertex="1">
                    <mxGeometry y="154" width="270" height="30" as="geometry"/>
                </mxCell>
                <mxCell id="26" value="" style="shape=partialRectangle;html=1;whiteSpace=wrap;connectable=0;overflow=hidden;fillColor=none;top=0;left=0;bottom=0;right=0;pointerEvents=1;strokeColor=#FF00FF;fontSize=24;fontColor=#000000;" parent="25" vertex="1">
                    <mxGeometry width="66" height="30" as="geometry">
                        <mxRectangle width="66" height="30" as="alternateBounds"/>
                    </mxGeometry>
                </mxCell>
                <mxCell id="27" value="&lt;font style=&quot;font-size: 12px;&quot;&gt;date_of_birth&lt;/font&gt;" style="shape=partialRectangle;html=1;whiteSpace=wrap;connectable=0;overflow=hidden;fillColor=none;top=0;left=0;bottom=0;right=0;pointerEvents=1;strokeColor=#FF00FF;fontSize=24;fontColor=#000000;" parent="25" vertex="1">
                    <mxGeometry x="66" width="144" height="30" as="geometry">
                        <mxRectangle width="144" height="30" as="alternateBounds"/>
                    </mxGeometry>
                </mxCell>
                <mxCell id="28" value="&lt;font style=&quot;font-size: 12px;&quot;&gt;DATE&lt;/font&gt;" style="shape=partialRectangle;html=1;whiteSpace=wrap;connectable=0;overflow=hidden;fillColor=none;top=0;left=0;bottom=0;right=0;pointerEvents=1;strokeColor=#FF00FF;fontSize=24;fontColor=#000000;" parent="25" vertex="1">
                    <mxGeometry x="210" width="60" height="30" as="geometry">
                        <mxRectangle width="60" height="30" as="alternateBounds"/>
                    </mxGeometry>
                </mxCell>
                <mxCell id="29" value="" style="shape=tableRow;horizontal=0;startSize=0;swimlaneHead=0;swimlaneBody=0;top=0;left=0;bottom=0;right=0;collapsible=0;dropTarget=0;fillColor=none;points=[[0,0.5],[1,0.5]];portConstraint=eastwest;strokeColor=#FF00FF;fontSize=24;fontColor=#000000;" parent="4" vertex="1">
                    <mxGeometry y="184" width="270" height="30" as="geometry"/>
                </mxCell>
                <mxCell id="30" value="" style="shape=partialRectangle;html=1;whiteSpace=wrap;connectable=0;overflow=hidden;fillColor=none;top=0;left=0;bottom=0;right=0;pointerEvents=1;strokeColor=#FF00FF;fontSize=24;fontColor=#000000;" parent="29" vertex="1">
                    <mxGeometry width="66" height="30" as="geometry">
                        <mxRectangle width="66" height="30" as="alternateBounds"/>
                    </mxGeometry>
                </mxCell>
                <mxCell id="31" value="&lt;font style=&quot;font-size: 12px;&quot;&gt;preferences&lt;/font&gt;" style="shape=partialRectangle;html=1;whiteSpace=wrap;connectable=0;overflow=hidden;fillColor=none;top=0;left=0;bottom=0;right=0;pointerEvents=1;strokeColor=#FF00FF;fontSize=24;fontColor=#000000;" parent="29" vertex="1">
                    <mxGeometry x="66" width="144" height="30" as="geometry">
                        <mxRectangle width="144" height="30" as="alternateBounds"/>
                    </mxGeometry>
                </mxCell>
                <mxCell id="32" value="&lt;font style=&quot;font-size: 12px;&quot;&gt;VARCHAR&lt;/font&gt;" style="shape=partialRectangle;html=1;whiteSpace=wrap;connectable=0;overflow=hidden;fillColor=none;top=0;left=0;bottom=0;right=0;pointerEvents=1;strokeColor=#FF00FF;fontSize=24;fontColor=#000000;" parent="29" vertex="1">
                    <mxGeometry x="210" width="60" height="30" as="geometry">
                        <mxRectangle width="60" height="30" as="alternateBounds"/>
                    </mxGeometry>
                </mxCell>
                <mxCell id="33" value="" style="shape=tableRow;horizontal=0;startSize=0;swimlaneHead=0;swimlaneBody=0;top=0;left=0;bottom=0;right=0;collapsible=0;dropTarget=0;fillColor=none;points=[[0,0.5],[1,0.5]];portConstraint=eastwest;strokeColor=#FF00FF;fontSize=24;fontColor=#000000;" parent="4" vertex="1">
                    <mxGeometry y="214" width="270" height="31" as="geometry"/>
                </mxCell>
                <mxCell id="34" value="" style="shape=partialRectangle;html=1;whiteSpace=wrap;connectable=0;overflow=hidden;fillColor=none;top=0;left=0;bottom=0;right=0;pointerEvents=1;strokeColor=#FF00FF;fontSize=24;fontColor=#000000;" parent="33" vertex="1">
                    <mxGeometry width="66" height="31" as="geometry">
                        <mxRectangle width="66" height="31" as="alternateBounds"/>
                    </mxGeometry>
                </mxCell>
                <mxCell id="35" value="&lt;font style=&quot;font-size: 12px;&quot;&gt;account_creation_date&amp;nbsp;&lt;/font&gt;" style="shape=partialRectangle;html=1;whiteSpace=wrap;connectable=0;overflow=hidden;fillColor=none;top=0;left=0;bottom=0;right=0;pointerEvents=1;strokeColor=#FF00FF;fontSize=24;fontColor=#000000;" parent="33" vertex="1">
                    <mxGeometry x="66" width="144" height="31" as="geometry">
                        <mxRectangle width="144" height="31" as="alternateBounds"/>
                    </mxGeometry>
                </mxCell>
                <mxCell id="36" value="&lt;font style=&quot;font-size: 12px;&quot;&gt;DATE&lt;/font&gt;" style="shape=partialRectangle;html=1;whiteSpace=wrap;connectable=0;overflow=hidden;fillColor=none;top=0;left=0;bottom=0;right=0;pointerEvents=1;strokeColor=#FF00FF;fontSize=24;fontColor=#000000;" parent="33" vertex="1">
                    <mxGeometry x="210" width="60" height="31" as="geometry">
                        <mxRectangle width="60" height="31" as="alternateBounds"/>
                    </mxGeometry>
                </mxCell>
                <mxCell id="276" style="html=1;exitX=0.566;exitY=0.978;exitDx=0;exitDy=0;entryX=0.25;entryY=0;entryDx=0;entryDy=0;fontFamily=Helvetica;fontSize=12;fontColor=#000000;exitPerimeter=0;" parent="1" source="86" target="156" edge="1">
                    <mxGeometry relative="1" as="geometry"/>
                </mxCell>
                <mxCell id="40" value="&lt;b&gt;USER&lt;/b&gt;" style="rounded=0;whiteSpace=wrap;html=1;strokeColor=#FF00FF;fontSize=12;fontColor=#000000;fillColor=#E6E6E6;" parent="1" vertex="1">
                    <mxGeometry x="20" y="20" width="270" height="40" as="geometry"/>
                </mxCell>
                <mxCell id="43" value="" style="shape=table;startSize=0;container=1;collapsible=0;childLayout=tableLayout;strokeColor=#FF00FF;fontSize=24;fontColor=#000000;fillColor=#E6E6E6;" parent="1" vertex="1">
                    <mxGeometry x="560" y="60" width="250" height="240" as="geometry"/>
                </mxCell>
                <mxCell id="44" value="" style="shape=tableRow;horizontal=0;startSize=0;swimlaneHead=0;swimlaneBody=0;top=0;left=0;bottom=0;right=0;collapsible=0;dropTarget=0;fillColor=none;points=[[0,0.5],[1,0.5]];portConstraint=eastwest;strokeColor=#FF00FF;fontSize=24;fontColor=#000000;" parent="43" vertex="1">
                    <mxGeometry width="250" height="29" as="geometry"/>
                </mxCell>
                <mxCell id="45" value="&lt;font style=&quot;font-size: 12px;&quot;&gt;PK&lt;/font&gt;" style="shape=partialRectangle;html=1;whiteSpace=wrap;connectable=0;overflow=hidden;fillColor=none;top=0;left=0;bottom=0;right=0;pointerEvents=1;strokeColor=#FF00FF;fontSize=24;fontColor=#000000;" parent="44" vertex="1">
                    <mxGeometry width="61" height="29" as="geometry">
                        <mxRectangle width="61" height="29" as="alternateBounds"/>
                    </mxGeometry>
                </mxCell>
                <mxCell id="46" value="&lt;font style=&quot;font-size: 12px;&quot;&gt;pet_id&lt;/font&gt;" style="shape=partialRectangle;html=1;whiteSpace=wrap;connectable=0;overflow=hidden;fillColor=none;top=0;left=0;bottom=0;right=0;pointerEvents=1;strokeColor=#FF00FF;fontSize=24;fontColor=#000000;" parent="44" vertex="1">
                    <mxGeometry x="61" width="128" height="29" as="geometry">
                        <mxRectangle width="128" height="29" as="alternateBounds"/>
                    </mxGeometry>
                </mxCell>
                <mxCell id="47" value="&lt;font style=&quot;font-size: 12px;&quot;&gt;INT&lt;/font&gt;" style="shape=partialRectangle;html=1;whiteSpace=wrap;connectable=0;overflow=hidden;fillColor=none;top=0;left=0;bottom=0;right=0;pointerEvents=1;strokeColor=#FF00FF;fontSize=24;fontColor=#000000;" parent="44" vertex="1">
                    <mxGeometry x="189" width="61" height="29" as="geometry">
                        <mxRectangle width="61" height="29" as="alternateBounds"/>
                    </mxGeometry>
                </mxCell>
                <mxCell id="48" value="" style="shape=tableRow;horizontal=0;startSize=0;swimlaneHead=0;swimlaneBody=0;top=0;left=0;bottom=0;right=0;collapsible=0;dropTarget=0;fillColor=none;points=[[0,0.5],[1,0.5]];portConstraint=eastwest;strokeColor=#FF00FF;fontSize=24;fontColor=#000000;" parent="43" vertex="1">
                    <mxGeometry y="29" width="250" height="26" as="geometry"/>
                </mxCell>
                <mxCell id="49" value="" style="shape=partialRectangle;html=1;whiteSpace=wrap;connectable=0;overflow=hidden;fillColor=none;top=0;left=0;bottom=0;right=0;pointerEvents=1;strokeColor=#FF00FF;fontSize=24;fontColor=#000000;" parent="48" vertex="1">
                    <mxGeometry width="61" height="26" as="geometry">
                        <mxRectangle width="61" height="26" as="alternateBounds"/>
                    </mxGeometry>
                </mxCell>
                <mxCell id="50" value="&lt;font style=&quot;font-size: 12px;&quot;&gt;name&lt;/font&gt;" style="shape=partialRectangle;html=1;whiteSpace=wrap;connectable=0;overflow=hidden;fillColor=none;top=0;left=0;bottom=0;right=0;pointerEvents=1;strokeColor=#FF00FF;fontSize=24;fontColor=#000000;" parent="48" vertex="1">
                    <mxGeometry x="61" width="128" height="26" as="geometry">
                        <mxRectangle width="128" height="26" as="alternateBounds"/>
                    </mxGeometry>
                </mxCell>
                <mxCell id="51" value="&lt;font style=&quot;font-size: 12px;&quot;&gt;VARCHAR&lt;/font&gt;" style="shape=partialRectangle;html=1;whiteSpace=wrap;connectable=0;overflow=hidden;fillColor=none;top=0;left=0;bottom=0;right=0;pointerEvents=1;strokeColor=#FF00FF;fontSize=24;fontColor=#000000;" parent="48" vertex="1">
                    <mxGeometry x="189" width="61" height="26" as="geometry">
                        <mxRectangle width="61" height="26" as="alternateBounds"/>
                    </mxGeometry>
                </mxCell>
                <mxCell id="52" value="" style="shape=tableRow;horizontal=0;startSize=0;swimlaneHead=0;swimlaneBody=0;top=0;left=0;bottom=0;right=0;collapsible=0;dropTarget=0;fillColor=none;points=[[0,0.5],[1,0.5]];portConstraint=eastwest;strokeColor=#FF00FF;fontSize=24;fontColor=#000000;" parent="43" vertex="1">
                    <mxGeometry y="55" width="250" height="31" as="geometry"/>
                </mxCell>
                <mxCell id="53" value="" style="shape=partialRectangle;html=1;whiteSpace=wrap;connectable=0;overflow=hidden;fillColor=none;top=0;left=0;bottom=0;right=0;pointerEvents=1;strokeColor=#FF00FF;fontSize=24;fontColor=#000000;" parent="52" vertex="1">
                    <mxGeometry width="61" height="31" as="geometry">
                        <mxRectangle width="61" height="31" as="alternateBounds"/>
                    </mxGeometry>
                </mxCell>
                <mxCell id="54" value="&lt;font style=&quot;font-size: 12px;&quot;&gt;breed&lt;/font&gt;" style="shape=partialRectangle;html=1;whiteSpace=wrap;connectable=0;overflow=hidden;fillColor=none;top=0;left=0;bottom=0;right=0;pointerEvents=1;strokeColor=#FF00FF;fontSize=24;fontColor=#000000;" parent="52" vertex="1">
                    <mxGeometry x="61" width="128" height="31" as="geometry">
                        <mxRectangle width="128" height="31" as="alternateBounds"/>
                    </mxGeometry>
                </mxCell>
                <mxCell id="55" value="&lt;font style=&quot;font-size: 12px;&quot;&gt;VARCHAR&lt;/font&gt;" style="shape=partialRectangle;html=1;whiteSpace=wrap;connectable=0;overflow=hidden;fillColor=none;top=0;left=0;bottom=0;right=0;pointerEvents=1;strokeColor=#FF00FF;fontSize=24;fontColor=#000000;" parent="52" vertex="1">
                    <mxGeometry x="189" width="61" height="31" as="geometry">
                        <mxRectangle width="61" height="31" as="alternateBounds"/>
                    </mxGeometry>
                </mxCell>
                <mxCell id="56" value="" style="shape=tableRow;horizontal=0;startSize=0;swimlaneHead=0;swimlaneBody=0;top=0;left=0;bottom=0;right=0;collapsible=0;dropTarget=0;fillColor=none;points=[[0,0.5],[1,0.5]];portConstraint=eastwest;strokeColor=#FF00FF;fontSize=24;fontColor=#000000;" parent="43" vertex="1">
                    <mxGeometry y="86" width="250" height="30" as="geometry"/>
                </mxCell>
                <mxCell id="57" value="" style="shape=partialRectangle;html=1;whiteSpace=wrap;connectable=0;overflow=hidden;fillColor=none;top=0;left=0;bottom=0;right=0;pointerEvents=1;strokeColor=#FF00FF;fontSize=24;fontColor=#000000;" parent="56" vertex="1">
                    <mxGeometry width="61" height="30" as="geometry">
                        <mxRectangle width="61" height="30" as="alternateBounds"/>
                    </mxGeometry>
                </mxCell>
                <mxCell id="58" value="&lt;font style=&quot;font-size: 12px;&quot;&gt;gender&lt;/font&gt;" style="shape=partialRectangle;html=1;whiteSpace=wrap;connectable=0;overflow=hidden;fillColor=none;top=0;left=0;bottom=0;right=0;pointerEvents=1;strokeColor=#FF00FF;fontSize=24;fontColor=#000000;" parent="56" vertex="1">
                    <mxGeometry x="61" width="128" height="30" as="geometry">
                        <mxRectangle width="128" height="30" as="alternateBounds"/>
                    </mxGeometry>
                </mxCell>
                <mxCell id="59" value="&lt;font style=&quot;font-size: 12px;&quot;&gt;VARCHAR&lt;/font&gt;" style="shape=partialRectangle;html=1;whiteSpace=wrap;connectable=0;overflow=hidden;fillColor=none;top=0;left=0;bottom=0;right=0;pointerEvents=1;strokeColor=#FF00FF;fontSize=24;fontColor=#000000;" parent="56" vertex="1">
                    <mxGeometry x="189" width="61" height="30" as="geometry">
                        <mxRectangle width="61" height="30" as="alternateBounds"/>
                    </mxGeometry>
                </mxCell>
                <mxCell id="60" value="" style="shape=tableRow;horizontal=0;startSize=0;swimlaneHead=0;swimlaneBody=0;top=0;left=0;bottom=0;right=0;collapsible=0;dropTarget=0;fillColor=none;points=[[0,0.5],[1,0.5]];portConstraint=eastwest;strokeColor=#FF00FF;fontSize=24;fontColor=#000000;" parent="43" vertex="1">
                    <mxGeometry y="116" width="250" height="33" as="geometry"/>
                </mxCell>
                <mxCell id="61" value="" style="shape=partialRectangle;html=1;whiteSpace=wrap;connectable=0;overflow=hidden;fillColor=none;top=0;left=0;bottom=0;right=0;pointerEvents=1;strokeColor=#FF00FF;fontSize=24;fontColor=#000000;" parent="60" vertex="1">
                    <mxGeometry width="61" height="33" as="geometry">
                        <mxRectangle width="61" height="33" as="alternateBounds"/>
                    </mxGeometry>
                </mxCell>
                <mxCell id="62" value="&lt;font style=&quot;font-size: 12px;&quot;&gt;age&lt;/font&gt;" style="shape=partialRectangle;html=1;whiteSpace=wrap;connectable=0;overflow=hidden;fillColor=none;top=0;left=0;bottom=0;right=0;pointerEvents=1;strokeColor=#FF00FF;fontSize=24;fontColor=#000000;" parent="60" vertex="1">
                    <mxGeometry x="61" width="128" height="33" as="geometry">
                        <mxRectangle width="128" height="33" as="alternateBounds"/>
                    </mxGeometry>
                </mxCell>
                <mxCell id="63" value="&lt;font style=&quot;font-size: 12px;&quot;&gt;INT&lt;/font&gt;" style="shape=partialRectangle;html=1;whiteSpace=wrap;connectable=0;overflow=hidden;fillColor=none;top=0;left=0;bottom=0;right=0;pointerEvents=1;strokeColor=#FF00FF;fontSize=24;fontColor=#000000;" parent="60" vertex="1">
                    <mxGeometry x="189" width="61" height="33" as="geometry">
                        <mxRectangle width="61" height="33" as="alternateBounds"/>
                    </mxGeometry>
                </mxCell>
                <mxCell id="64" value="" style="shape=tableRow;horizontal=0;startSize=0;swimlaneHead=0;swimlaneBody=0;top=0;left=0;bottom=0;right=0;collapsible=0;dropTarget=0;fillColor=none;points=[[0,0.5],[1,0.5]];portConstraint=eastwest;strokeColor=#FF00FF;fontSize=24;fontColor=#000000;" parent="43" vertex="1">
                    <mxGeometry y="149" width="250" height="30" as="geometry"/>
                </mxCell>
                <mxCell id="65" value="" style="shape=partialRectangle;html=1;whiteSpace=wrap;connectable=0;overflow=hidden;fillColor=none;top=0;left=0;bottom=0;right=0;pointerEvents=1;strokeColor=#FF00FF;fontSize=24;fontColor=#000000;" parent="64" vertex="1">
                    <mxGeometry width="61" height="30" as="geometry">
                        <mxRectangle width="61" height="30" as="alternateBounds"/>
                    </mxGeometry>
                </mxCell>
                <mxCell id="66" value="&lt;font style=&quot;font-size: 12px;&quot;&gt;date_of_brith&lt;/font&gt;" style="shape=partialRectangle;html=1;whiteSpace=wrap;connectable=0;overflow=hidden;fillColor=none;top=0;left=0;bottom=0;right=0;pointerEvents=1;strokeColor=#FF00FF;fontSize=24;fontColor=#000000;" parent="64" vertex="1">
                    <mxGeometry x="61" width="128" height="30" as="geometry">
                        <mxRectangle width="128" height="30" as="alternateBounds"/>
                    </mxGeometry>
                </mxCell>
                <mxCell id="67" value="&lt;font style=&quot;font-size: 12px;&quot;&gt;DATE&lt;/font&gt;" style="shape=partialRectangle;html=1;whiteSpace=wrap;connectable=0;overflow=hidden;fillColor=none;top=0;left=0;bottom=0;right=0;pointerEvents=1;strokeColor=#FF00FF;fontSize=24;fontColor=#000000;" parent="64" vertex="1">
                    <mxGeometry x="189" width="61" height="30" as="geometry">
                        <mxRectangle width="61" height="30" as="alternateBounds"/>
                    </mxGeometry>
                </mxCell>
                <mxCell id="68" value="" style="shape=tableRow;horizontal=0;startSize=0;swimlaneHead=0;swimlaneBody=0;top=0;left=0;bottom=0;right=0;collapsible=0;dropTarget=0;fillColor=none;points=[[0,0.5],[1,0.5]];portConstraint=eastwest;strokeColor=#FF00FF;fontSize=24;fontColor=#000000;" parent="43" vertex="1">
                    <mxGeometry y="179" width="250" height="30" as="geometry"/>
                </mxCell>
                <mxCell id="69" value="" style="shape=partialRectangle;html=1;whiteSpace=wrap;connectable=0;overflow=hidden;fillColor=none;top=0;left=0;bottom=0;right=0;pointerEvents=1;strokeColor=#FF00FF;fontSize=24;fontColor=#000000;" parent="68" vertex="1">
                    <mxGeometry width="61" height="30" as="geometry">
                        <mxRectangle width="61" height="30" as="alternateBounds"/>
                    </mxGeometry>
                </mxCell>
                <mxCell id="70" value="&lt;font style=&quot;font-size: 12px;&quot;&gt;adoption_status&lt;/font&gt;" style="shape=partialRectangle;html=1;whiteSpace=wrap;connectable=0;overflow=hidden;fillColor=none;top=0;left=0;bottom=0;right=0;pointerEvents=1;strokeColor=#FF00FF;fontSize=24;fontColor=#000000;" parent="68" vertex="1">
                    <mxGeometry x="61" width="128" height="30" as="geometry">
                        <mxRectangle width="128" height="30" as="alternateBounds"/>
                    </mxGeometry>
                </mxCell>
                <mxCell id="71" value="&lt;font style=&quot;font-size: 12px;&quot;&gt;VARCHAR&lt;/font&gt;" style="shape=partialRectangle;html=1;whiteSpace=wrap;connectable=0;overflow=hidden;fillColor=none;top=0;left=0;bottom=0;right=0;pointerEvents=1;strokeColor=#FF00FF;fontSize=24;fontColor=#000000;" parent="68" vertex="1">
                    <mxGeometry x="189" width="61" height="30" as="geometry">
                        <mxRectangle width="61" height="30" as="alternateBounds"/>
                    </mxGeometry>
                </mxCell>
                <mxCell id="72" value="" style="shape=tableRow;horizontal=0;startSize=0;swimlaneHead=0;swimlaneBody=0;top=0;left=0;bottom=0;right=0;collapsible=0;dropTarget=0;fillColor=none;points=[[0,0.5],[1,0.5]];portConstraint=eastwest;strokeColor=#FF00FF;fontSize=24;fontColor=#000000;" parent="43" vertex="1">
                    <mxGeometry y="209" width="250" height="31" as="geometry"/>
                </mxCell>
                <mxCell id="73" value="" style="shape=partialRectangle;html=1;whiteSpace=wrap;connectable=0;overflow=hidden;fillColor=none;top=0;left=0;bottom=0;right=0;pointerEvents=1;strokeColor=#FF00FF;fontSize=24;fontColor=#000000;" parent="72" vertex="1">
                    <mxGeometry width="61" height="31" as="geometry">
                        <mxRectangle width="61" height="31" as="alternateBounds"/>
                    </mxGeometry>
                </mxCell>
                <mxCell id="74" value="&lt;font style=&quot;font-size: 12px;&quot;&gt;medical_history&lt;/font&gt;" style="shape=partialRectangle;html=1;whiteSpace=wrap;connectable=0;overflow=hidden;fillColor=none;top=0;left=0;bottom=0;right=0;pointerEvents=1;strokeColor=#FF00FF;fontSize=24;fontColor=#000000;" parent="72" vertex="1">
                    <mxGeometry x="61" width="128" height="31" as="geometry">
                        <mxRectangle width="128" height="31" as="alternateBounds"/>
                    </mxGeometry>
                </mxCell>
                <mxCell id="75" value="&lt;font style=&quot;font-size: 12px;&quot;&gt;VARCHAR&lt;/font&gt;" style="shape=partialRectangle;html=1;whiteSpace=wrap;connectable=0;overflow=hidden;fillColor=none;top=0;left=0;bottom=0;right=0;pointerEvents=1;strokeColor=#FF00FF;fontSize=24;fontColor=#000000;" parent="72" vertex="1">
                    <mxGeometry x="189" width="61" height="31" as="geometry">
                        <mxRectangle width="61" height="31" as="alternateBounds"/>
                    </mxGeometry>
                </mxCell>
                <mxCell id="278" style="edgeStyle=none;html=1;exitX=0;exitY=1;exitDx=0;exitDy=0;entryX=0.75;entryY=0;entryDx=0;entryDy=0;fontFamily=Helvetica;fontSize=14;fontColor=#000000;" parent="1" source="76" target="156" edge="1">
                    <mxGeometry relative="1" as="geometry"/>
                </mxCell>
                <mxCell id="76" value="&lt;b&gt;PET&lt;/b&gt;" style="rounded=0;whiteSpace=wrap;html=1;strokeColor=#FF00FF;fontSize=12;fontColor=#000000;fillColor=#E6E6E6;" parent="1" vertex="1">
                    <mxGeometry x="560" y="20" width="250" height="40" as="geometry"/>
                </mxCell>
                <mxCell id="81" value="" style="shape=table;startSize=0;container=1;collapsible=0;childLayout=tableLayout;strokeColor=#FF00FF;fontFamily=Verdana;fontSize=12;fontColor=#000000;fillColor=#E6E6E6;" parent="1" vertex="1">
                    <mxGeometry x="20" y="305" width="270" height="70" as="geometry"/>
                </mxCell>
                <mxCell id="82" value="" style="shape=tableRow;horizontal=0;startSize=0;swimlaneHead=0;swimlaneBody=0;top=0;left=0;bottom=0;right=0;collapsible=0;dropTarget=0;fillColor=none;points=[[0,0.5],[1,0.5]];portConstraint=eastwest;strokeColor=#FF00FF;fontFamily=Verdana;fontSize=12;fontColor=#000000;" parent="81" vertex="1">
                    <mxGeometry width="270" height="35" as="geometry"/>
                </mxCell>
                <mxCell id="83" value="" style="shape=partialRectangle;html=1;whiteSpace=wrap;connectable=0;overflow=hidden;fillColor=none;top=0;left=0;bottom=0;right=0;pointerEvents=1;strokeColor=#FF00FF;fontFamily=Verdana;fontSize=12;fontColor=#000000;" parent="82" vertex="1">
                    <mxGeometry width="65" height="35" as="geometry">
                        <mxRectangle width="65" height="35" as="alternateBounds"/>
                    </mxGeometry>
                </mxCell>
                <mxCell id="84" value="&lt;font face=&quot;Helvetica&quot;&gt;adoption_approval_status&lt;/font&gt;" style="shape=partialRectangle;html=1;whiteSpace=wrap;connectable=0;overflow=hidden;fillColor=none;top=0;left=0;bottom=0;right=0;pointerEvents=1;strokeColor=#FF00FF;fontFamily=Verdana;fontSize=12;fontColor=#000000;" parent="82" vertex="1">
                    <mxGeometry x="65" width="145" height="35" as="geometry">
                        <mxRectangle width="145" height="35" as="alternateBounds"/>
                    </mxGeometry>
                </mxCell>
                <mxCell id="85" value="INT" style="shape=partialRectangle;html=1;whiteSpace=wrap;connectable=0;overflow=hidden;fillColor=none;top=0;left=0;bottom=0;right=0;pointerEvents=1;strokeColor=#FF00FF;fontFamily=Verdana;fontSize=12;fontColor=#000000;" parent="82" vertex="1">
                    <mxGeometry x="210" width="60" height="35" as="geometry">
                        <mxRectangle width="60" height="35" as="alternateBounds"/>
                    </mxGeometry>
                </mxCell>
                <mxCell id="86" value="" style="shape=tableRow;horizontal=0;startSize=0;swimlaneHead=0;swimlaneBody=0;top=0;left=0;bottom=0;right=0;collapsible=0;dropTarget=0;fillColor=none;points=[[0,0.5],[1,0.5]];portConstraint=eastwest;strokeColor=#FF00FF;fontFamily=Verdana;fontSize=12;fontColor=#000000;" parent="81" vertex="1">
                    <mxGeometry y="35" width="270" height="35" as="geometry"/>
                </mxCell>
                <mxCell id="87" value="" style="shape=partialRectangle;html=1;whiteSpace=wrap;connectable=0;overflow=hidden;fillColor=none;top=0;left=0;bottom=0;right=0;pointerEvents=1;strokeColor=#FF00FF;fontFamily=Verdana;fontSize=12;fontColor=#000000;" parent="86" vertex="1">
                    <mxGeometry width="65" height="35" as="geometry">
                        <mxRectangle width="65" height="35" as="alternateBounds"/>
                    </mxGeometry>
                </mxCell>
                <mxCell id="88" value="&lt;font face=&quot;Helvetica&quot;&gt;adoption_history&lt;/font&gt;" style="shape=partialRectangle;html=1;whiteSpace=wrap;connectable=0;overflow=hidden;fillColor=none;top=0;left=0;bottom=0;right=0;pointerEvents=1;strokeColor=#FF00FF;fontFamily=Verdana;fontSize=12;fontColor=#000000;" parent="86" vertex="1">
                    <mxGeometry x="65" width="145" height="35" as="geometry">
                        <mxRectangle width="145" height="35" as="alternateBounds"/>
                    </mxGeometry>
                </mxCell>
                <mxCell id="89" value="VARCHAR" style="shape=partialRectangle;html=1;whiteSpace=wrap;connectable=0;overflow=hidden;fillColor=none;top=0;left=0;bottom=0;right=0;pointerEvents=1;strokeColor=#FF00FF;fontFamily=Verdana;fontSize=12;fontColor=#000000;" parent="86" vertex="1">
                    <mxGeometry x="210" width="60" height="35" as="geometry">
                        <mxRectangle width="60" height="35" as="alternateBounds"/>
                    </mxGeometry>
                </mxCell>
                <mxCell id="90" value="" style="shape=table;startSize=0;container=1;collapsible=0;childLayout=tableLayout;strokeColor=#FF00FF;fontFamily=Helvetica;fontSize=12;fontColor=#000000;fillColor=#E6E6E6;" parent="1" vertex="1">
                    <mxGeometry x="560" y="300" width="250" height="170" as="geometry"/>
                </mxCell>
                <mxCell id="91" value="" style="shape=tableRow;horizontal=0;startSize=0;swimlaneHead=0;swimlaneBody=0;top=0;left=0;bottom=0;right=0;collapsible=0;dropTarget=0;fillColor=none;points=[[0,0.5],[1,0.5]];portConstraint=eastwest;strokeColor=#FF00FF;fontFamily=Helvetica;fontSize=12;fontColor=#000000;" parent="90" vertex="1">
                    <mxGeometry width="250" height="43" as="geometry"/>
                </mxCell>
                <mxCell id="92" value="" style="shape=partialRectangle;html=1;whiteSpace=wrap;connectable=0;overflow=hidden;fillColor=none;top=0;left=0;bottom=0;right=0;pointerEvents=1;strokeColor=#FF00FF;fontFamily=Helvetica;fontSize=12;fontColor=#000000;" parent="91" vertex="1">
                    <mxGeometry width="60" height="43" as="geometry">
                        <mxRectangle width="60" height="43" as="alternateBounds"/>
                    </mxGeometry>
                </mxCell>
                <mxCell id="93" value="intake_date&amp;nbsp;" style="shape=partialRectangle;html=1;whiteSpace=wrap;connectable=0;overflow=hidden;fillColor=none;top=0;left=0;bottom=0;right=0;pointerEvents=1;strokeColor=#FF00FF;fontFamily=Helvetica;fontSize=12;fontColor=#000000;" parent="91" vertex="1">
                    <mxGeometry x="60" width="130" height="43" as="geometry">
                        <mxRectangle width="130" height="43" as="alternateBounds"/>
                    </mxGeometry>
                </mxCell>
                <mxCell id="94" value="DATE" style="shape=partialRectangle;html=1;whiteSpace=wrap;connectable=0;overflow=hidden;fillColor=none;top=0;left=0;bottom=0;right=0;pointerEvents=1;strokeColor=#FF00FF;fontFamily=Helvetica;fontSize=12;fontColor=#000000;" parent="91" vertex="1">
                    <mxGeometry x="190" width="60" height="43" as="geometry">
                        <mxRectangle width="60" height="43" as="alternateBounds"/>
                    </mxGeometry>
                </mxCell>
                <mxCell id="259" value="" style="shape=tableRow;horizontal=0;startSize=0;swimlaneHead=0;swimlaneBody=0;top=0;left=0;bottom=0;right=0;collapsible=0;dropTarget=0;fillColor=none;points=[[0,0.5],[1,0.5]];portConstraint=eastwest;strokeColor=#FF00FF;fontFamily=Helvetica;fontSize=12;fontColor=#000000;" parent="90" vertex="1">
                    <mxGeometry y="43" width="250" height="44" as="geometry"/>
                </mxCell>
                <mxCell id="260" value="" style="shape=partialRectangle;html=1;whiteSpace=wrap;connectable=0;overflow=hidden;fillColor=none;top=0;left=0;bottom=0;right=0;pointerEvents=1;strokeColor=#FF00FF;fontFamily=Helvetica;fontSize=12;fontColor=#000000;" parent="259" vertex="1">
                    <mxGeometry width="60" height="44" as="geometry">
                        <mxRectangle width="60" height="44" as="alternateBounds"/>
                    </mxGeometry>
                </mxCell>
                <mxCell id="261" value="food_preferences" style="shape=partialRectangle;html=1;whiteSpace=wrap;connectable=0;overflow=hidden;fillColor=none;top=0;left=0;bottom=0;right=0;pointerEvents=1;strokeColor=#FF00FF;fontFamily=Helvetica;fontSize=12;fontColor=#000000;" parent="259" vertex="1">
                    <mxGeometry x="60" width="130" height="44" as="geometry">
                        <mxRectangle width="130" height="44" as="alternateBounds"/>
                    </mxGeometry>
                </mxCell>
                <mxCell id="262" value="VARCHAR" style="shape=partialRectangle;html=1;whiteSpace=wrap;connectable=0;overflow=hidden;fillColor=none;top=0;left=0;bottom=0;right=0;pointerEvents=1;strokeColor=#FF00FF;fontFamily=Helvetica;fontSize=12;fontColor=#000000;" parent="259" vertex="1">
                    <mxGeometry x="190" width="60" height="44" as="geometry">
                        <mxRectangle width="60" height="44" as="alternateBounds"/>
                    </mxGeometry>
                </mxCell>
                <mxCell id="95" value="" style="shape=tableRow;horizontal=0;startSize=0;swimlaneHead=0;swimlaneBody=0;top=0;left=0;bottom=0;right=0;collapsible=0;dropTarget=0;fillColor=none;points=[[0,0.5],[1,0.5]];portConstraint=eastwest;strokeColor=#FF00FF;fontFamily=Helvetica;fontSize=12;fontColor=#000000;" parent="90" vertex="1">
                    <mxGeometry y="87" width="250" height="44" as="geometry"/>
                </mxCell>
                <mxCell id="96" value="" style="shape=partialRectangle;html=1;whiteSpace=wrap;connectable=0;overflow=hidden;fillColor=none;top=0;left=0;bottom=0;right=0;pointerEvents=1;strokeColor=#FF00FF;fontFamily=Helvetica;fontSize=12;fontColor=#000000;" parent="95" vertex="1">
                    <mxGeometry width="60" height="44" as="geometry">
                        <mxRectangle width="60" height="44" as="alternateBounds"/>
                    </mxGeometry>
                </mxCell>
                <mxCell id="97" value="image" style="shape=partialRectangle;html=1;whiteSpace=wrap;connectable=0;overflow=hidden;fillColor=none;top=0;left=0;bottom=0;right=0;pointerEvents=1;strokeColor=#FF00FF;fontFamily=Helvetica;fontSize=12;fontColor=#000000;" parent="95" vertex="1">
                    <mxGeometry x="60" width="130" height="44" as="geometry">
                        <mxRectangle width="130" height="44" as="alternateBounds"/>
                    </mxGeometry>
                </mxCell>
                <mxCell id="98" value="IMG" style="shape=partialRectangle;html=1;whiteSpace=wrap;connectable=0;overflow=hidden;fillColor=none;top=0;left=0;bottom=0;right=0;pointerEvents=1;strokeColor=#FF00FF;fontFamily=Helvetica;fontSize=12;fontColor=#000000;" parent="95" vertex="1">
                    <mxGeometry x="190" width="60" height="44" as="geometry">
                        <mxRectangle width="60" height="44" as="alternateBounds"/>
                    </mxGeometry>
                </mxCell>
                <mxCell id="99" value="" style="shape=tableRow;horizontal=0;startSize=0;swimlaneHead=0;swimlaneBody=0;top=0;left=0;bottom=0;right=0;collapsible=0;dropTarget=0;fillColor=none;points=[[0,0.5],[1,0.5]];portConstraint=eastwest;strokeColor=#FF00FF;fontFamily=Helvetica;fontSize=12;fontColor=#000000;" parent="90" vertex="1">
                    <mxGeometry y="131" width="250" height="39" as="geometry"/>
                </mxCell>
                <mxCell id="100" value="FK" style="shape=partialRectangle;html=1;whiteSpace=wrap;connectable=0;overflow=hidden;fillColor=none;top=0;left=0;bottom=0;right=0;pointerEvents=1;strokeColor=#FF00FF;fontFamily=Helvetica;fontSize=12;fontColor=#000000;" parent="99" vertex="1">
                    <mxGeometry width="60" height="39" as="geometry">
                        <mxRectangle width="60" height="39" as="alternateBounds"/>
                    </mxGeometry>
                </mxCell>
                <mxCell id="101" value="shelter_ID" style="shape=partialRectangle;html=1;whiteSpace=wrap;connectable=0;overflow=hidden;fillColor=none;top=0;left=0;bottom=0;right=0;pointerEvents=1;strokeColor=#FF00FF;fontFamily=Helvetica;fontSize=12;fontColor=#000000;" parent="99" vertex="1">
                    <mxGeometry x="60" width="130" height="39" as="geometry">
                        <mxRectangle width="130" height="39" as="alternateBounds"/>
                    </mxGeometry>
                </mxCell>
                <mxCell id="102" value="INT" style="shape=partialRectangle;html=1;whiteSpace=wrap;connectable=0;overflow=hidden;fillColor=none;top=0;left=0;bottom=0;right=0;pointerEvents=1;strokeColor=#FF00FF;fontFamily=Helvetica;fontSize=12;fontColor=#000000;" parent="99" vertex="1">
                    <mxGeometry x="190" width="60" height="39" as="geometry">
                        <mxRectangle width="60" height="39" as="alternateBounds"/>
                    </mxGeometry>
                </mxCell>
                <mxCell id="123" value="" style="shape=table;startSize=0;container=1;collapsible=0;childLayout=tableLayout;strokeColor=#FF00FF;fontSize=24;fontColor=#000000;fillColor=#E6E6E6;" parent="1" vertex="1">
                    <mxGeometry x="180" y="474" width="299.9999999999999" height="194" as="geometry"/>
                </mxCell>
                <mxCell id="124" value="" style="shape=tableRow;horizontal=0;startSize=0;swimlaneHead=0;swimlaneBody=0;top=0;left=0;bottom=0;right=0;collapsible=0;dropTarget=0;fillColor=none;points=[[0,0.5],[1,0.5]];portConstraint=eastwest;strokeColor=#FF00FF;fontSize=24;fontColor=#000000;" parent="123" vertex="1">
                    <mxGeometry width="299.9999999999999" height="29" as="geometry"/>
                </mxCell>
                <mxCell id="125" value="&lt;font style=&quot;font-size: 12px;&quot;&gt;PK&lt;/font&gt;" style="shape=partialRectangle;html=1;whiteSpace=wrap;connectable=0;overflow=hidden;fillColor=none;top=0;left=0;bottom=0;right=0;pointerEvents=1;strokeColor=#FF00FF;fontSize=24;fontColor=#000000;" parent="124" vertex="1">
                    <mxGeometry width="77" height="29" as="geometry">
                        <mxRectangle width="77" height="29" as="alternateBounds"/>
                    </mxGeometry>
                </mxCell>
                <mxCell id="126" value="&lt;font style=&quot;font-size: 12px;&quot;&gt;request_id&lt;/font&gt;" style="shape=partialRectangle;html=1;whiteSpace=wrap;connectable=0;overflow=hidden;fillColor=none;top=0;left=0;bottom=0;right=0;pointerEvents=1;strokeColor=#FF00FF;fontSize=24;fontColor=#000000;" parent="124" vertex="1">
                    <mxGeometry x="77" width="153" height="29" as="geometry">
                        <mxRectangle width="153" height="29" as="alternateBounds"/>
                    </mxGeometry>
                </mxCell>
                <mxCell id="127" value="&lt;font style=&quot;font-size: 12px;&quot;&gt;INT&lt;/font&gt;" style="shape=partialRectangle;html=1;whiteSpace=wrap;connectable=0;overflow=hidden;fillColor=none;top=0;left=0;bottom=0;right=0;pointerEvents=1;strokeColor=#FF00FF;fontSize=24;fontColor=#000000;" parent="124" vertex="1">
                    <mxGeometry x="230" width="70" height="29" as="geometry">
                        <mxRectangle width="70" height="29" as="alternateBounds"/>
                    </mxGeometry>
                </mxCell>
                <mxCell id="128" value="" style="shape=tableRow;horizontal=0;startSize=0;swimlaneHead=0;swimlaneBody=0;top=0;left=0;bottom=0;right=0;collapsible=0;dropTarget=0;fillColor=none;points=[[0,0.5],[1,0.5]];portConstraint=eastwest;strokeColor=#FF00FF;fontSize=24;fontColor=#000000;" parent="123" vertex="1">
                    <mxGeometry y="29" width="299.9999999999999" height="26" as="geometry"/>
                </mxCell>
                <mxCell id="129" value="&lt;font style=&quot;font-size: 12px;&quot;&gt;FK&lt;/font&gt;" style="shape=partialRectangle;html=1;whiteSpace=wrap;connectable=0;overflow=hidden;fillColor=none;top=0;left=0;bottom=0;right=0;pointerEvents=1;strokeColor=#FF00FF;fontSize=24;fontColor=#000000;" parent="128" vertex="1">
                    <mxGeometry width="77" height="26" as="geometry">
                        <mxRectangle width="77" height="26" as="alternateBounds"/>
                    </mxGeometry>
                </mxCell>
                <mxCell id="130" value="&lt;span style=&quot;font-size: 12px;&quot;&gt;user_id&lt;/span&gt;" style="shape=partialRectangle;html=1;whiteSpace=wrap;connectable=0;overflow=hidden;fillColor=none;top=0;left=0;bottom=0;right=0;pointerEvents=1;strokeColor=#FF00FF;fontSize=24;fontColor=#000000;" parent="128" vertex="1">
                    <mxGeometry x="77" width="153" height="26" as="geometry">
                        <mxRectangle width="153" height="26" as="alternateBounds"/>
                    </mxGeometry>
                </mxCell>
                <mxCell id="131" value="&lt;font style=&quot;font-size: 12px;&quot;&gt;INT&lt;/font&gt;" style="shape=partialRectangle;html=1;whiteSpace=wrap;connectable=0;overflow=hidden;fillColor=none;top=0;left=0;bottom=0;right=0;pointerEvents=1;strokeColor=#FF00FF;fontSize=24;fontColor=#000000;" parent="128" vertex="1">
                    <mxGeometry x="230" width="70" height="26" as="geometry">
                        <mxRectangle width="70" height="26" as="alternateBounds"/>
                    </mxGeometry>
                </mxCell>
                <mxCell id="132" value="" style="shape=tableRow;horizontal=0;startSize=0;swimlaneHead=0;swimlaneBody=0;top=0;left=0;bottom=0;right=0;collapsible=0;dropTarget=0;fillColor=none;points=[[0,0.5],[1,0.5]];portConstraint=eastwest;strokeColor=#FF00FF;fontSize=24;fontColor=#000000;" parent="123" vertex="1">
                    <mxGeometry y="55" width="299.9999999999999" height="35" as="geometry"/>
                </mxCell>
                <mxCell id="133" value="&lt;font style=&quot;font-size: 12px;&quot;&gt;FK&lt;/font&gt;" style="shape=partialRectangle;html=1;whiteSpace=wrap;connectable=0;overflow=hidden;fillColor=none;top=0;left=0;bottom=0;right=0;pointerEvents=1;strokeColor=#FF00FF;fontSize=24;fontColor=#000000;" parent="132" vertex="1">
                    <mxGeometry width="77" height="35" as="geometry">
                        <mxRectangle width="77" height="35" as="alternateBounds"/>
                    </mxGeometry>
                </mxCell>
                <mxCell id="134" value="&lt;span style=&quot;font-size: 12px;&quot;&gt;pet_id&lt;/span&gt;" style="shape=partialRectangle;html=1;whiteSpace=wrap;connectable=0;overflow=hidden;fillColor=none;top=0;left=0;bottom=0;right=0;pointerEvents=1;strokeColor=#FF00FF;fontSize=24;fontColor=#000000;" parent="132" vertex="1">
                    <mxGeometry x="77" width="153" height="35" as="geometry">
                        <mxRectangle width="153" height="35" as="alternateBounds"/>
                    </mxGeometry>
                </mxCell>
                <mxCell id="135" value="&lt;font style=&quot;font-size: 12px;&quot;&gt;INT&lt;/font&gt;" style="shape=partialRectangle;html=1;whiteSpace=wrap;connectable=0;overflow=hidden;fillColor=none;top=0;left=0;bottom=0;right=0;pointerEvents=1;strokeColor=#FF00FF;fontSize=24;fontColor=#000000;" parent="132" vertex="1">
                    <mxGeometry x="230" width="70" height="35" as="geometry">
                        <mxRectangle width="70" height="35" as="alternateBounds"/>
                    </mxGeometry>
                </mxCell>
                <mxCell id="136" value="" style="shape=tableRow;horizontal=0;startSize=0;swimlaneHead=0;swimlaneBody=0;top=0;left=0;bottom=0;right=0;collapsible=0;dropTarget=0;fillColor=none;points=[[0,0.5],[1,0.5]];portConstraint=eastwest;strokeColor=#FF00FF;fontSize=24;fontColor=#000000;" parent="123" vertex="1">
                    <mxGeometry y="90" width="299.9999999999999" height="30" as="geometry"/>
                </mxCell>
                <mxCell id="137" value="" style="shape=partialRectangle;html=1;whiteSpace=wrap;connectable=0;overflow=hidden;fillColor=none;top=0;left=0;bottom=0;right=0;pointerEvents=1;strokeColor=#FF00FF;fontSize=24;fontColor=#000000;" parent="136" vertex="1">
                    <mxGeometry width="77" height="30" as="geometry">
                        <mxRectangle width="77" height="30" as="alternateBounds"/>
                    </mxGeometry>
                </mxCell>
                <mxCell id="138" value="&lt;font style=&quot;font-size: 12px;&quot;&gt;request_date&lt;/font&gt;" style="shape=partialRectangle;html=1;whiteSpace=wrap;connectable=0;overflow=hidden;fillColor=none;top=0;left=0;bottom=0;right=0;pointerEvents=1;strokeColor=#FF00FF;fontSize=24;fontColor=#000000;" parent="136" vertex="1">
                    <mxGeometry x="77" width="153" height="30" as="geometry">
                        <mxRectangle width="153" height="30" as="alternateBounds"/>
                    </mxGeometry>
                </mxCell>
                <mxCell id="139" value="&lt;font style=&quot;font-size: 12px;&quot;&gt;DATE&lt;/font&gt;" style="shape=partialRectangle;html=1;whiteSpace=wrap;connectable=0;overflow=hidden;fillColor=none;top=0;left=0;bottom=0;right=0;pointerEvents=1;strokeColor=#FF00FF;fontSize=24;fontColor=#000000;" parent="136" vertex="1">
                    <mxGeometry x="230" width="70" height="30" as="geometry">
                        <mxRectangle width="70" height="30" as="alternateBounds"/>
                    </mxGeometry>
                </mxCell>
                <mxCell id="140" value="" style="shape=tableRow;horizontal=0;startSize=0;swimlaneHead=0;swimlaneBody=0;top=0;left=0;bottom=0;right=0;collapsible=0;dropTarget=0;fillColor=none;points=[[0,0.5],[1,0.5]];portConstraint=eastwest;strokeColor=#FF00FF;fontSize=24;fontColor=#000000;" parent="123" vertex="1">
                    <mxGeometry y="120" width="299.9999999999999" height="74" as="geometry"/>
                </mxCell>
                <mxCell id="141" value="" style="shape=partialRectangle;html=1;whiteSpace=wrap;connectable=0;overflow=hidden;fillColor=none;top=0;left=0;bottom=0;right=0;pointerEvents=1;strokeColor=#FF00FF;fontSize=24;fontColor=#000000;" parent="140" vertex="1">
                    <mxGeometry width="77" height="74" as="geometry">
                        <mxRectangle width="77" height="74" as="alternateBounds"/>
                    </mxGeometry>
                </mxCell>
                <mxCell id="142" value="&lt;font style=&quot;font-size: 12px;&quot;&gt;status&lt;br&gt;(pending,processed,denied)&lt;/font&gt;" style="shape=partialRectangle;html=1;whiteSpace=wrap;connectable=0;overflow=hidden;fillColor=none;top=0;left=0;bottom=0;right=0;pointerEvents=1;strokeColor=#FF00FF;fontSize=24;fontColor=#000000;" parent="140" vertex="1">
                    <mxGeometry x="77" width="153" height="74" as="geometry">
                        <mxRectangle width="153" height="74" as="alternateBounds"/>
                    </mxGeometry>
                </mxCell>
                <mxCell id="143" value="&lt;font style=&quot;font-size: 12px;&quot;&gt;VARCHAR&lt;/font&gt;" style="shape=partialRectangle;html=1;whiteSpace=wrap;connectable=0;overflow=hidden;fillColor=none;top=0;left=0;bottom=0;right=0;pointerEvents=1;strokeColor=#FF00FF;fontSize=24;fontColor=#000000;" parent="140" vertex="1">
                    <mxGeometry x="230" width="70" height="74" as="geometry">
                        <mxRectangle width="70" height="74" as="alternateBounds"/>
                    </mxGeometry>
                </mxCell>
                <mxCell id="156" value="&lt;b&gt;ADOPTION REQUEST&lt;/b&gt;" style="rounded=0;whiteSpace=wrap;html=1;strokeColor=#FF00FF;fontSize=12;fontColor=#000000;fillColor=#E6E6E6;" parent="1" vertex="1">
                    <mxGeometry x="180" y="434" width="300" height="40" as="geometry"/>
                </mxCell>
                <mxCell id="215" value="" style="shape=table;startSize=0;container=1;collapsible=0;childLayout=tableLayout;strokeColor=#FF00FF;fontFamily=Helvetica;fontSize=12;fontColor=#000000;fillColor=#E6E6E6;" parent="1" vertex="1">
                    <mxGeometry x="580" y="730" width="220" height="240" as="geometry"/>
                </mxCell>
                <mxCell id="216" value="" style="shape=tableRow;horizontal=0;startSize=0;swimlaneHead=0;swimlaneBody=0;top=0;left=0;bottom=0;right=0;collapsible=0;dropTarget=0;fillColor=none;points=[[0,0.5],[1,0.5]];portConstraint=eastwest;strokeColor=#FF00FF;fontFamily=Helvetica;fontSize=12;fontColor=#000000;" parent="215" vertex="1">
                    <mxGeometry width="220" height="40" as="geometry"/>
                </mxCell>
                <mxCell id="217" value="PK" style="shape=partialRectangle;html=1;whiteSpace=wrap;connectable=0;overflow=hidden;fillColor=none;top=0;left=0;bottom=0;right=0;pointerEvents=1;strokeColor=#FF00FF;fontFamily=Helvetica;fontSize=12;fontColor=#000000;" parent="216" vertex="1">
                    <mxGeometry width="40" height="40" as="geometry">
                        <mxRectangle width="40" height="40" as="alternateBounds"/>
                    </mxGeometry>
                </mxCell>
                <mxCell id="218" value="admin_id" style="shape=partialRectangle;html=1;whiteSpace=wrap;connectable=0;overflow=hidden;fillColor=none;top=0;left=0;bottom=0;right=0;pointerEvents=1;strokeColor=#FF00FF;fontFamily=Helvetica;fontSize=12;fontColor=#000000;" parent="216" vertex="1">
                    <mxGeometry x="40" width="100" height="40" as="geometry">
                        <mxRectangle width="100" height="40" as="alternateBounds"/>
                    </mxGeometry>
                </mxCell>
                <mxCell id="219" value="INT" style="shape=partialRectangle;html=1;whiteSpace=wrap;connectable=0;overflow=hidden;fillColor=none;top=0;left=0;bottom=0;right=0;pointerEvents=1;strokeColor=#FF00FF;fontFamily=Helvetica;fontSize=12;fontColor=#000000;" parent="216" vertex="1">
                    <mxGeometry x="140" width="80" height="40" as="geometry">
                        <mxRectangle width="80" height="40" as="alternateBounds"/>
                    </mxGeometry>
                </mxCell>
                <mxCell id="220" value="" style="shape=tableRow;horizontal=0;startSize=0;swimlaneHead=0;swimlaneBody=0;top=0;left=0;bottom=0;right=0;collapsible=0;dropTarget=0;fillColor=none;points=[[0,0.5],[1,0.5]];portConstraint=eastwest;strokeColor=#FF00FF;fontFamily=Helvetica;fontSize=12;fontColor=#000000;" parent="215" vertex="1">
                    <mxGeometry y="40" width="220" height="40" as="geometry"/>
                </mxCell>
                <mxCell id="221" value="" style="shape=partialRectangle;html=1;whiteSpace=wrap;connectable=0;overflow=hidden;fillColor=none;top=0;left=0;bottom=0;right=0;pointerEvents=1;strokeColor=#FF00FF;fontFamily=Helvetica;fontSize=12;fontColor=#000000;" parent="220" vertex="1">
                    <mxGeometry width="40" height="40" as="geometry">
                        <mxRectangle width="40" height="40" as="alternateBounds"/>
                    </mxGeometry>
                </mxCell>
                <mxCell id="222" value="name" style="shape=partialRectangle;html=1;whiteSpace=wrap;connectable=0;overflow=hidden;fillColor=none;top=0;left=0;bottom=0;right=0;pointerEvents=1;strokeColor=#FF00FF;fontFamily=Helvetica;fontSize=12;fontColor=#000000;" parent="220" vertex="1">
                    <mxGeometry x="40" width="100" height="40" as="geometry">
                        <mxRectangle width="100" height="40" as="alternateBounds"/>
                    </mxGeometry>
                </mxCell>
                <mxCell id="223" value="VARCHAR" style="shape=partialRectangle;html=1;whiteSpace=wrap;connectable=0;overflow=hidden;fillColor=none;top=0;left=0;bottom=0;right=0;pointerEvents=1;strokeColor=#FF00FF;fontFamily=Helvetica;fontSize=12;fontColor=#000000;" parent="220" vertex="1">
                    <mxGeometry x="140" width="80" height="40" as="geometry">
                        <mxRectangle width="80" height="40" as="alternateBounds"/>
                    </mxGeometry>
                </mxCell>
                <mxCell id="224" value="" style="shape=tableRow;horizontal=0;startSize=0;swimlaneHead=0;swimlaneBody=0;top=0;left=0;bottom=0;right=0;collapsible=0;dropTarget=0;fillColor=none;points=[[0,0.5],[1,0.5]];portConstraint=eastwest;strokeColor=#FF00FF;fontFamily=Helvetica;fontSize=12;fontColor=#000000;" parent="215" vertex="1">
                    <mxGeometry y="80" width="220" height="40" as="geometry"/>
                </mxCell>
                <mxCell id="225" value="" style="shape=partialRectangle;html=1;whiteSpace=wrap;connectable=0;overflow=hidden;fillColor=none;top=0;left=0;bottom=0;right=0;pointerEvents=1;strokeColor=#FF00FF;fontFamily=Helvetica;fontSize=12;fontColor=#000000;" parent="224" vertex="1">
                    <mxGeometry width="40" height="40" as="geometry">
                        <mxRectangle width="40" height="40" as="alternateBounds"/>
                    </mxGeometry>
                </mxCell>
                <mxCell id="226" value="email" style="shape=partialRectangle;html=1;whiteSpace=wrap;connectable=0;overflow=hidden;fillColor=none;top=0;left=0;bottom=0;right=0;pointerEvents=1;strokeColor=#FF00FF;fontFamily=Helvetica;fontSize=12;fontColor=#000000;" parent="224" vertex="1">
                    <mxGeometry x="40" width="100" height="40" as="geometry">
                        <mxRectangle width="100" height="40" as="alternateBounds"/>
                    </mxGeometry>
                </mxCell>
                <mxCell id="227" value="VARCHAR" style="shape=partialRectangle;html=1;whiteSpace=wrap;connectable=0;overflow=hidden;fillColor=none;top=0;left=0;bottom=0;right=0;pointerEvents=1;strokeColor=#FF00FF;fontFamily=Helvetica;fontSize=12;fontColor=#000000;" parent="224" vertex="1">
                    <mxGeometry x="140" width="80" height="40" as="geometry">
                        <mxRectangle width="80" height="40" as="alternateBounds"/>
                    </mxGeometry>
                </mxCell>
                <mxCell id="228" value="" style="shape=tableRow;horizontal=0;startSize=0;swimlaneHead=0;swimlaneBody=0;top=0;left=0;bottom=0;right=0;collapsible=0;dropTarget=0;fillColor=none;points=[[0,0.5],[1,0.5]];portConstraint=eastwest;strokeColor=#FF00FF;fontFamily=Helvetica;fontSize=12;fontColor=#000000;" parent="215" vertex="1">
                    <mxGeometry y="120" width="220" height="40" as="geometry"/>
                </mxCell>
                <mxCell id="229" value="" style="shape=partialRectangle;html=1;whiteSpace=wrap;connectable=0;overflow=hidden;fillColor=none;top=0;left=0;bottom=0;right=0;pointerEvents=1;strokeColor=#FF00FF;fontFamily=Helvetica;fontSize=12;fontColor=#000000;" parent="228" vertex="1">
                    <mxGeometry width="40" height="40" as="geometry">
                        <mxRectangle width="40" height="40" as="alternateBounds"/>
                    </mxGeometry>
                </mxCell>
                <mxCell id="230" value="role" style="shape=partialRectangle;html=1;whiteSpace=wrap;connectable=0;overflow=hidden;fillColor=none;top=0;left=0;bottom=0;right=0;pointerEvents=1;strokeColor=#FF00FF;fontFamily=Helvetica;fontSize=12;fontColor=#000000;" parent="228" vertex="1">
                    <mxGeometry x="40" width="100" height="40" as="geometry">
                        <mxRectangle width="100" height="40" as="alternateBounds"/>
                    </mxGeometry>
                </mxCell>
                <mxCell id="231" value="VARCHAR" style="shape=partialRectangle;html=1;whiteSpace=wrap;connectable=0;overflow=hidden;fillColor=none;top=0;left=0;bottom=0;right=0;pointerEvents=1;strokeColor=#FF00FF;fontFamily=Helvetica;fontSize=12;fontColor=#000000;" parent="228" vertex="1">
                    <mxGeometry x="140" width="80" height="40" as="geometry">
                        <mxRectangle width="80" height="40" as="alternateBounds"/>
                    </mxGeometry>
                </mxCell>
                <mxCell id="232" value="" style="shape=tableRow;horizontal=0;startSize=0;swimlaneHead=0;swimlaneBody=0;top=0;left=0;bottom=0;right=0;collapsible=0;dropTarget=0;fillColor=none;points=[[0,0.5],[1,0.5]];portConstraint=eastwest;strokeColor=#FF00FF;fontFamily=Helvetica;fontSize=12;fontColor=#000000;" parent="215" vertex="1">
                    <mxGeometry y="160" width="220" height="40" as="geometry"/>
                </mxCell>
                <mxCell id="233" value="FK" style="shape=partialRectangle;html=1;whiteSpace=wrap;connectable=0;overflow=hidden;fillColor=none;top=0;left=0;bottom=0;right=0;pointerEvents=1;strokeColor=#FF00FF;fontFamily=Helvetica;fontSize=12;fontColor=#000000;" parent="232" vertex="1">
                    <mxGeometry width="40" height="40" as="geometry">
                        <mxRectangle width="40" height="40" as="alternateBounds"/>
                    </mxGeometry>
                </mxCell>
                <mxCell id="234" value="shelter_id" style="shape=partialRectangle;html=1;whiteSpace=wrap;connectable=0;overflow=hidden;fillColor=none;top=0;left=0;bottom=0;right=0;pointerEvents=1;strokeColor=#FF00FF;fontFamily=Helvetica;fontSize=12;fontColor=#000000;" parent="232" vertex="1">
                    <mxGeometry x="40" width="100" height="40" as="geometry">
                        <mxRectangle width="100" height="40" as="alternateBounds"/>
                    </mxGeometry>
                </mxCell>
                <mxCell id="235" value="INT" style="shape=partialRectangle;html=1;whiteSpace=wrap;connectable=0;overflow=hidden;fillColor=none;top=0;left=0;bottom=0;right=0;pointerEvents=1;strokeColor=#FF00FF;fontFamily=Helvetica;fontSize=12;fontColor=#000000;" parent="232" vertex="1">
                    <mxGeometry x="140" width="80" height="40" as="geometry">
                        <mxRectangle width="80" height="40" as="alternateBounds"/>
                    </mxGeometry>
                </mxCell>
                <mxCell id="287" value="" style="shape=tableRow;horizontal=0;startSize=0;swimlaneHead=0;swimlaneBody=0;top=0;left=0;bottom=0;right=0;collapsible=0;dropTarget=0;fillColor=none;points=[[0,0.5],[1,0.5]];portConstraint=eastwest;strokeColor=#FF00FF;fontFamily=Helvetica;fontSize=12;fontColor=#000000;" parent="215" vertex="1">
                    <mxGeometry y="200" width="220" height="40" as="geometry"/>
                </mxCell>
                <mxCell id="288" value="FK" style="shape=partialRectangle;html=1;whiteSpace=wrap;connectable=0;overflow=hidden;fillColor=none;top=0;left=0;bottom=0;right=0;pointerEvents=1;strokeColor=#FF00FF;fontFamily=Helvetica;fontSize=12;fontColor=#000000;" parent="287" vertex="1">
                    <mxGeometry width="40" height="40" as="geometry">
                        <mxRectangle width="40" height="40" as="alternateBounds"/>
                    </mxGeometry>
                </mxCell>
                <mxCell id="289" value="request_id" style="shape=partialRectangle;html=1;whiteSpace=wrap;connectable=0;overflow=hidden;fillColor=none;top=0;left=0;bottom=0;right=0;pointerEvents=1;strokeColor=#FF00FF;fontFamily=Helvetica;fontSize=12;fontColor=#000000;" parent="287" vertex="1">
                    <mxGeometry x="40" width="100" height="40" as="geometry">
                        <mxRectangle width="100" height="40" as="alternateBounds"/>
                    </mxGeometry>
                </mxCell>
                <mxCell id="290" value="INT" style="shape=partialRectangle;html=1;whiteSpace=wrap;connectable=0;overflow=hidden;fillColor=none;top=0;left=0;bottom=0;right=0;pointerEvents=1;strokeColor=#FF00FF;fontFamily=Helvetica;fontSize=12;fontColor=#000000;" parent="287" vertex="1">
                    <mxGeometry x="140" width="80" height="40" as="geometry">
                        <mxRectangle width="80" height="40" as="alternateBounds"/>
                    </mxGeometry>
                </mxCell>
                <mxCell id="291" style="edgeStyle=none;html=1;exitX=0.75;exitY=0;exitDx=0;exitDy=0;entryX=0.718;entryY=1.087;entryDx=0;entryDy=0;entryPerimeter=0;" edge="1" parent="1" source="236" target="99">
                    <mxGeometry relative="1" as="geometry"/>
                </mxCell>
                <mxCell id="236" value="&lt;b&gt;Administration&lt;/b&gt;" style="rounded=0;whiteSpace=wrap;html=1;strokeColor=#FF00FF;fontSize=12;fontColor=#000000;fillColor=#E6E6E6;" parent="1" vertex="1">
                    <mxGeometry x="580" y="690" width="220" height="40" as="geometry"/>
                </mxCell>
                <mxCell id="237" value="" style="shape=table;startSize=0;container=1;collapsible=0;childLayout=tableLayout;strokeColor=#FF00FF;fontFamily=Helvetica;fontSize=12;fontColor=#000000;fillColor=#E6E6E6;" parent="1" vertex="1">
                    <mxGeometry x="40" y="780" width="290" height="294" as="geometry"/>
                </mxCell>
                <mxCell id="238" value="" style="shape=tableRow;horizontal=0;startSize=0;swimlaneHead=0;swimlaneBody=0;top=0;left=0;bottom=0;right=0;collapsible=0;dropTarget=0;fillColor=none;points=[[0,0.5],[1,0.5]];portConstraint=eastwest;strokeColor=#FF00FF;fontFamily=Helvetica;fontSize=12;fontColor=#000000;" parent="237" vertex="1">
                    <mxGeometry width="290" height="42" as="geometry"/>
                </mxCell>
                <mxCell id="239" value="PK" style="shape=partialRectangle;html=1;whiteSpace=wrap;connectable=0;overflow=hidden;fillColor=none;top=0;left=0;bottom=0;right=0;pointerEvents=1;strokeColor=#FF00FF;fontFamily=Helvetica;fontSize=12;fontColor=#000000;" parent="238" vertex="1">
                    <mxGeometry width="50" height="42" as="geometry">
                        <mxRectangle width="50" height="42" as="alternateBounds"/>
                    </mxGeometry>
                </mxCell>
                <mxCell id="240" value="shelter_id" style="shape=partialRectangle;html=1;whiteSpace=wrap;connectable=0;overflow=hidden;fillColor=none;top=0;left=0;bottom=0;right=0;pointerEvents=1;strokeColor=#FF00FF;fontFamily=Helvetica;fontSize=12;fontColor=#000000;" parent="238" vertex="1">
                    <mxGeometry x="50" width="170" height="42" as="geometry">
                        <mxRectangle width="170" height="42" as="alternateBounds"/>
                    </mxGeometry>
                </mxCell>
                <mxCell id="241" value="INT" style="shape=partialRectangle;html=1;whiteSpace=wrap;connectable=0;overflow=hidden;fillColor=none;top=0;left=0;bottom=0;right=0;pointerEvents=1;strokeColor=#FF00FF;fontFamily=Helvetica;fontSize=12;fontColor=#000000;" parent="238" vertex="1">
                    <mxGeometry x="220" width="70" height="42" as="geometry">
                        <mxRectangle width="70" height="42" as="alternateBounds"/>
                    </mxGeometry>
                </mxCell>
                <mxCell id="242" value="" style="shape=tableRow;horizontal=0;startSize=0;swimlaneHead=0;swimlaneBody=0;top=0;left=0;bottom=0;right=0;collapsible=0;dropTarget=0;fillColor=none;points=[[0,0.5],[1,0.5]];portConstraint=eastwest;strokeColor=#FF00FF;fontFamily=Helvetica;fontSize=12;fontColor=#000000;" parent="237" vertex="1">
                    <mxGeometry y="42" width="290" height="42" as="geometry"/>
                </mxCell>
                <mxCell id="243" value="" style="shape=partialRectangle;html=1;whiteSpace=wrap;connectable=0;overflow=hidden;fillColor=none;top=0;left=0;bottom=0;right=0;pointerEvents=1;strokeColor=#FF00FF;fontFamily=Helvetica;fontSize=12;fontColor=#000000;" parent="242" vertex="1">
                    <mxGeometry width="50" height="42" as="geometry">
                        <mxRectangle width="50" height="42" as="alternateBounds"/>
                    </mxGeometry>
                </mxCell>
                <mxCell id="244" value="name" style="shape=partialRectangle;html=1;whiteSpace=wrap;connectable=0;overflow=hidden;fillColor=none;top=0;left=0;bottom=0;right=0;pointerEvents=1;strokeColor=#FF00FF;fontFamily=Helvetica;fontSize=12;fontColor=#000000;" parent="242" vertex="1">
                    <mxGeometry x="50" width="170" height="42" as="geometry">
                        <mxRectangle width="170" height="42" as="alternateBounds"/>
                    </mxGeometry>
                </mxCell>
                <mxCell id="245" value="VARCHAR" style="shape=partialRectangle;html=1;whiteSpace=wrap;connectable=0;overflow=hidden;fillColor=none;top=0;left=0;bottom=0;right=0;pointerEvents=1;strokeColor=#FF00FF;fontFamily=Helvetica;fontSize=12;fontColor=#000000;" parent="242" vertex="1">
                    <mxGeometry x="220" width="70" height="42" as="geometry">
                        <mxRectangle width="70" height="42" as="alternateBounds"/>
                    </mxGeometry>
                </mxCell>
                <mxCell id="246" value="" style="shape=tableRow;horizontal=0;startSize=0;swimlaneHead=0;swimlaneBody=0;top=0;left=0;bottom=0;right=0;collapsible=0;dropTarget=0;fillColor=none;points=[[0,0.5],[1,0.5]];portConstraint=eastwest;strokeColor=#FF00FF;fontFamily=Helvetica;fontSize=12;fontColor=#000000;" parent="237" vertex="1">
                    <mxGeometry y="84" width="290" height="42" as="geometry"/>
                </mxCell>
                <mxCell id="247" value="" style="shape=partialRectangle;html=1;whiteSpace=wrap;connectable=0;overflow=hidden;fillColor=none;top=0;left=0;bottom=0;right=0;pointerEvents=1;strokeColor=#FF00FF;fontFamily=Helvetica;fontSize=12;fontColor=#000000;" parent="246" vertex="1">
                    <mxGeometry width="50" height="42" as="geometry">
                        <mxRectangle width="50" height="42" as="alternateBounds"/>
                    </mxGeometry>
                </mxCell>
                <mxCell id="248" value="location" style="shape=partialRectangle;html=1;whiteSpace=wrap;connectable=0;overflow=hidden;fillColor=none;top=0;left=0;bottom=0;right=0;pointerEvents=1;strokeColor=#FF00FF;fontFamily=Helvetica;fontSize=12;fontColor=#000000;" parent="246" vertex="1">
                    <mxGeometry x="50" width="170" height="42" as="geometry">
                        <mxRectangle width="170" height="42" as="alternateBounds"/>
                    </mxGeometry>
                </mxCell>
                <mxCell id="249" value="VARCHAR" style="shape=partialRectangle;html=1;whiteSpace=wrap;connectable=0;overflow=hidden;fillColor=none;top=0;left=0;bottom=0;right=0;pointerEvents=1;strokeColor=#FF00FF;fontFamily=Helvetica;fontSize=12;fontColor=#000000;" parent="246" vertex="1">
                    <mxGeometry x="220" width="70" height="42" as="geometry">
                        <mxRectangle width="70" height="42" as="alternateBounds"/>
                    </mxGeometry>
                </mxCell>
                <mxCell id="250" value="" style="shape=tableRow;horizontal=0;startSize=0;swimlaneHead=0;swimlaneBody=0;top=0;left=0;bottom=0;right=0;collapsible=0;dropTarget=0;fillColor=none;points=[[0,0.5],[1,0.5]];portConstraint=eastwest;strokeColor=#FF00FF;fontFamily=Helvetica;fontSize=12;fontColor=#000000;" parent="237" vertex="1">
                    <mxGeometry y="126" width="290" height="42" as="geometry"/>
                </mxCell>
                <mxCell id="251" value="" style="shape=partialRectangle;html=1;whiteSpace=wrap;connectable=0;overflow=hidden;fillColor=none;top=0;left=0;bottom=0;right=0;pointerEvents=1;strokeColor=#FF00FF;fontFamily=Helvetica;fontSize=12;fontColor=#000000;" parent="250" vertex="1">
                    <mxGeometry width="50" height="42" as="geometry">
                        <mxRectangle width="50" height="42" as="alternateBounds"/>
                    </mxGeometry>
                </mxCell>
                <mxCell id="252" value="phone" style="shape=partialRectangle;html=1;whiteSpace=wrap;connectable=0;overflow=hidden;fillColor=none;top=0;left=0;bottom=0;right=0;pointerEvents=1;strokeColor=#FF00FF;fontFamily=Helvetica;fontSize=12;fontColor=#000000;" parent="250" vertex="1">
                    <mxGeometry x="50" width="170" height="42" as="geometry">
                        <mxRectangle width="170" height="42" as="alternateBounds"/>
                    </mxGeometry>
                </mxCell>
                <mxCell id="253" value="VARCHAR" style="shape=partialRectangle;html=1;whiteSpace=wrap;connectable=0;overflow=hidden;fillColor=none;top=0;left=0;bottom=0;right=0;pointerEvents=1;strokeColor=#FF00FF;fontFamily=Helvetica;fontSize=12;fontColor=#000000;" parent="250" vertex="1">
                    <mxGeometry x="220" width="70" height="42" as="geometry">
                        <mxRectangle width="70" height="42" as="alternateBounds"/>
                    </mxGeometry>
                </mxCell>
                <mxCell id="267" value="" style="shape=tableRow;horizontal=0;startSize=0;swimlaneHead=0;swimlaneBody=0;top=0;left=0;bottom=0;right=0;collapsible=0;dropTarget=0;fillColor=none;points=[[0,0.5],[1,0.5]];portConstraint=eastwest;strokeColor=#FF00FF;fontFamily=Helvetica;fontSize=12;fontColor=#000000;" parent="237" vertex="1">
                    <mxGeometry y="168" width="290" height="42" as="geometry"/>
                </mxCell>
                <mxCell id="268" value="" style="shape=partialRectangle;html=1;whiteSpace=wrap;connectable=0;overflow=hidden;fillColor=none;top=0;left=0;bottom=0;right=0;pointerEvents=1;strokeColor=#FF00FF;fontFamily=Helvetica;fontSize=12;fontColor=#000000;" parent="267" vertex="1">
                    <mxGeometry width="50" height="42" as="geometry">
                        <mxRectangle width="50" height="42" as="alternateBounds"/>
                    </mxGeometry>
                </mxCell>
                <mxCell id="269" value="email" style="shape=partialRectangle;html=1;whiteSpace=wrap;connectable=0;overflow=hidden;fillColor=none;top=0;left=0;bottom=0;right=0;pointerEvents=1;strokeColor=#FF00FF;fontFamily=Helvetica;fontSize=12;fontColor=#000000;" parent="267" vertex="1">
                    <mxGeometry x="50" width="170" height="42" as="geometry">
                        <mxRectangle width="170" height="42" as="alternateBounds"/>
                    </mxGeometry>
                </mxCell>
                <mxCell id="270" value="VARCHAR" style="shape=partialRectangle;html=1;whiteSpace=wrap;connectable=0;overflow=hidden;fillColor=none;top=0;left=0;bottom=0;right=0;pointerEvents=1;strokeColor=#FF00FF;fontFamily=Helvetica;fontSize=12;fontColor=#000000;" parent="267" vertex="1">
                    <mxGeometry x="220" width="70" height="42" as="geometry">
                        <mxRectangle width="70" height="42" as="alternateBounds"/>
                    </mxGeometry>
                </mxCell>
                <mxCell id="271" value="" style="shape=tableRow;horizontal=0;startSize=0;swimlaneHead=0;swimlaneBody=0;top=0;left=0;bottom=0;right=0;collapsible=0;dropTarget=0;fillColor=none;points=[[0,0.5],[1,0.5]];portConstraint=eastwest;strokeColor=#FF00FF;fontFamily=Helvetica;fontSize=12;fontColor=#000000;" parent="237" vertex="1">
                    <mxGeometry y="210" width="290" height="42" as="geometry"/>
                </mxCell>
                <mxCell id="272" value="" style="shape=partialRectangle;html=1;whiteSpace=wrap;connectable=0;overflow=hidden;fillColor=none;top=0;left=0;bottom=0;right=0;pointerEvents=1;strokeColor=#FF00FF;fontFamily=Helvetica;fontSize=12;fontColor=#000000;" parent="271" vertex="1">
                    <mxGeometry width="50" height="42" as="geometry">
                        <mxRectangle width="50" height="42" as="alternateBounds"/>
                    </mxGeometry>
                </mxCell>
                <mxCell id="273" value="picture" style="shape=partialRectangle;html=1;whiteSpace=wrap;connectable=0;overflow=hidden;fillColor=none;top=0;left=0;bottom=0;right=0;pointerEvents=1;strokeColor=#FF00FF;fontFamily=Helvetica;fontSize=12;fontColor=#000000;" parent="271" vertex="1">
                    <mxGeometry x="50" width="170" height="42" as="geometry">
                        <mxRectangle width="170" height="42" as="alternateBounds"/>
                    </mxGeometry>
                </mxCell>
                <mxCell id="274" value="IMG" style="shape=partialRectangle;html=1;whiteSpace=wrap;connectable=0;overflow=hidden;fillColor=none;top=0;left=0;bottom=0;right=0;pointerEvents=1;strokeColor=#FF00FF;fontFamily=Helvetica;fontSize=12;fontColor=#000000;" parent="271" vertex="1">
                    <mxGeometry x="220" width="70" height="42" as="geometry">
                        <mxRectangle width="70" height="42" as="alternateBounds"/>
                    </mxGeometry>
                </mxCell>
                <mxCell id="254" value="" style="shape=tableRow;horizontal=0;startSize=0;swimlaneHead=0;swimlaneBody=0;top=0;left=0;bottom=0;right=0;collapsible=0;dropTarget=0;fillColor=none;points=[[0,0.5],[1,0.5]];portConstraint=eastwest;strokeColor=#FF00FF;fontFamily=Helvetica;fontSize=12;fontColor=#000000;" parent="237" vertex="1">
                    <mxGeometry y="252" width="290" height="42" as="geometry"/>
                </mxCell>
                <mxCell id="255" value="" style="shape=partialRectangle;html=1;whiteSpace=wrap;connectable=0;overflow=hidden;fillColor=none;top=0;left=0;bottom=0;right=0;pointerEvents=1;strokeColor=#FF00FF;fontFamily=Helvetica;fontSize=12;fontColor=#000000;" parent="254" vertex="1">
                    <mxGeometry width="50" height="42" as="geometry">
                        <mxRectangle width="50" height="42" as="alternateBounds"/>
                    </mxGeometry>
                </mxCell>
                <mxCell id="256" value="hours" style="shape=partialRectangle;html=1;whiteSpace=wrap;connectable=0;overflow=hidden;fillColor=none;top=0;left=0;bottom=0;right=0;pointerEvents=1;strokeColor=#FF00FF;fontFamily=Helvetica;fontSize=12;fontColor=#000000;" parent="254" vertex="1">
                    <mxGeometry x="50" width="170" height="42" as="geometry">
                        <mxRectangle width="170" height="42" as="alternateBounds"/>
                    </mxGeometry>
                </mxCell>
                <mxCell id="257" value="VARCHAR" style="shape=partialRectangle;html=1;whiteSpace=wrap;connectable=0;overflow=hidden;fillColor=none;top=0;left=0;bottom=0;right=0;pointerEvents=1;strokeColor=#FF00FF;fontFamily=Helvetica;fontSize=12;fontColor=#000000;" parent="254" vertex="1">
                    <mxGeometry x="220" width="70" height="42" as="geometry">
                        <mxRectangle width="70" height="42" as="alternateBounds"/>
                    </mxGeometry>
                </mxCell>
                <mxCell id="258" value="&lt;b&gt;Shelter&lt;/b&gt;" style="rounded=0;whiteSpace=wrap;html=1;strokeColor=#FF00FF;fontSize=12;fontColor=#000000;fillColor=#E6E6E6;" parent="1" vertex="1">
                    <mxGeometry x="40" y="740" width="290" height="40" as="geometry"/>
                </mxCell>
                <mxCell id="277" value="&lt;font style=&quot;font-size: 14px;&quot;&gt;1 to N&lt;br&gt;(An unser can request multiple adoption request)&lt;br&gt;&lt;/font&gt;" style="whiteSpace=wrap;html=1;strokeColor=#FF00FF;fontFamily=Helvetica;fontSize=12;fontColor=#000000;fillColor=#E6E6E6;" parent="1" vertex="1">
                    <mxGeometry x="50" y="390" width="110" height="90" as="geometry"/>
                </mxCell>
                <mxCell id="279" value="&lt;font style=&quot;font-size: 14px;&quot;&gt;1 to N&lt;br&gt;(A dog can have multiple adoption request)&lt;br&gt;&lt;/font&gt;" style="whiteSpace=wrap;html=1;strokeColor=#FF00FF;fontFamily=Helvetica;fontSize=12;fontColor=#000000;fillColor=#E6E6E6;" parent="1" vertex="1">
                    <mxGeometry x="365" y="120" width="120" height="80" as="geometry"/>
                </mxCell>
                <mxCell id="280" style="edgeStyle=none;html=1;entryX=1;entryY=0.5;entryDx=0;entryDy=0;fontFamily=Helvetica;fontSize=14;fontColor=#000000;exitX=0.428;exitY=1.151;exitDx=0;exitDy=0;exitPerimeter=0;" parent="1" target="242" edge="1" source="99">
                    <mxGeometry relative="1" as="geometry">
                        <mxPoint x="680" y="480" as="sourcePoint"/>
                    </mxGeometry>
                </mxCell>
                <mxCell id="281" style="edgeStyle=none;html=1;exitX=0.25;exitY=0;exitDx=0;exitDy=0;entryX=0;entryY=0.25;entryDx=0;entryDy=0;fontFamily=Helvetica;fontSize=14;fontColor=#000000;" parent="1" source="279" target="279" edge="1">
                    <mxGeometry relative="1" as="geometry"/>
                </mxCell>
                <mxCell id="282" value="&lt;font style=&quot;font-size: 14px;&quot;&gt;N to 1&lt;br&gt;(A shelter can have many pets)&lt;br&gt;&lt;/font&gt;" style="whiteSpace=wrap;html=1;strokeColor=#FF00FF;fontFamily=Helvetica;fontSize=12;fontColor=#000000;fillColor=#E6E6E6;" parent="1" vertex="1">
                    <mxGeometry x="380" y="710" width="150" height="50" as="geometry"/>
                </mxCell>
                <mxCell id="284" style="edgeStyle=none;html=1;exitX=1;exitY=0.5;exitDx=0;exitDy=0;fontFamily=Helvetica;fontSize=14;fontColor=#000000;entryX=0;entryY=0.5;entryDx=0;entryDy=0;" parent="1" source="271" target="232" edge="1">
                    <mxGeometry relative="1" as="geometry">
                        <mxPoint x="410" y="930" as="targetPoint"/>
                    </mxGeometry>
                </mxCell>
                <mxCell id="286" value="&lt;font style=&quot;font-size: 14px;&quot;&gt;1 to N&lt;br&gt;(A shelter can have multiple admins)&lt;br&gt;&lt;/font&gt;" style="whiteSpace=wrap;html=1;strokeColor=#FF00FF;fontFamily=Helvetica;fontSize=12;fontColor=#000000;fillColor=#E6E6E6;" parent="1" vertex="1">
                    <mxGeometry x="410" y="990" width="150" height="50" as="geometry"/>
                </mxCell>
                <mxCell id="292" value="&lt;font style=&quot;font-size: 14px;&quot;&gt;N to N&lt;br&gt;(An admin can monitor multiple pets)&lt;br&gt;&lt;/font&gt;" style="whiteSpace=wrap;html=1;strokeColor=#FF00FF;fontFamily=Helvetica;fontSize=12;fontColor=#000000;fillColor=#E6E6E6;" vertex="1" parent="1">
                    <mxGeometry x="640" y="546" width="150" height="50" as="geometry"/>
                </mxCell>
            </root>
        </mxGraphModel>
    </diagram>
</mxfile>